HIERARCHY
ROOT Hips
{
	OFFSET 0.000000 0.000000 0.000000
	CHANNELS 6 Xposition Yposition Zposition Xrotation Yrotation Zrotation
	JOINT LeftUpLeg_virtual
	{
		OFFSET 0.000000 0.000000 0.000000
		CHANNELS 3 Xrotation Yrotation Zrotation
		JOINT LeftUpLeg
		{
			OFFSET 15.427100 -6.655098 0.678600
			CHANNELS 3 Xrotation Yrotation Zrotation
			JOINT LeftLeg
			{
				OFFSET 4.081073 -39.591068 13.024000
				CHANNELS 3 Xrotation Yrotation Zrotation
				JOINT LeftFoot
				{
					OFFSET -4.081074 -37.707932 -15.979700
					CHANNELS 3 Xrotation Yrotation Zrotation
					JOINT LeftToeBase
					{
						OFFSET 5.346399 -15.068900 20.645000
						CHANNELS 3 Xrotation Yrotation Zrotation
						JOINT LeftToe_End
						{
							OFFSET 2.754700 0.931300 11.300900
							CHANNELS 3 Xrotation Yrotation Zrotation
							End Site
							{
								OFFSET 0 0 0
							}
						}
					}
				}
			}
		}
	}
	JOINT RightUpLeg_virtual
	{
		OFFSET 0.000000 0.000000 0.000000
		CHANNELS 3 Xrotation Yrotation Zrotation
		JOINT RightUpLeg
		{
			OFFSET -15.569500 -6.655098 0.678600
			CHANNELS 3 Xrotation Yrotation Zrotation
			JOINT RightLeg
			{
				OFFSET -4.081825 -39.591045 13.023800
				CHANNELS 3 Xrotation Yrotation Zrotation
				JOINT RightFoot
				{
					OFFSET 4.081824 -37.707954 -15.979600
					CHANNELS 3 Xrotation Yrotation Zrotation
					JOINT RightToeBase
					{
						OFFSET -5.346400 -15.068900 20.645000
						CHANNELS 3 Xrotation Yrotation Zrotation
						JOINT RightToe_End
						{
							OFFSET -2.754700 0.931300 11.300900
							CHANNELS 3 Xrotation Yrotation Zrotation
							End Site
							{
								OFFSET 0 0 0
							}
						}
					}
				}
			}
		}
	}
	JOINT Spine_virtual
	{
		OFFSET 0.000000 0.000000 0.000000
		CHANNELS 3 Xrotation Yrotation Zrotation
		JOINT Spine
		{
			OFFSET -0.279200 12.230698 -2.892100
			CHANNELS 3 Xrotation Yrotation Zrotation
			JOINT Spine1
			{
				OFFSET -0.232667 10.192268 -1.242267
				CHANNELS 3 Xrotation Yrotation Zrotation
				JOINT Spine1_split
				{
					OFFSET -0.232667 10.192268 -1.242267
					CHANNELS 3 Xrotation Yrotation Zrotation
					JOINT Spine2
					{
						OFFSET -0.232667 10.192268 -1.242267
						CHANNELS 3 Xrotation Yrotation Zrotation
						JOINT Neck_virtual
						{
							OFFSET 0.000000 0.000000 0.000000
							CHANNELS 3 Xrotation Yrotation Zrotation
							JOINT Neck
							{
								OFFSET -0.418800 17.814194 8.416900
								CHANNELS 3 Xrotation Yrotation Zrotation
								JOINT Head
								{
									OFFSET 0.000000 7.031097 3.806800
									CHANNELS 3 Xrotation Yrotation Zrotation
									JOINT HeadTop_End
									{
										OFFSET 0.000000 24.646606 12.978600
										CHANNELS 3 Xrotation Yrotation Zrotation
										End Site
										{
											OFFSET 0 0 0
										}
									}
								}
							}
						}
						JOINT LeftShoulder_virtual
						{
							OFFSET 0.000000 0.000000 0.000000
							CHANNELS 3 Xrotation Yrotation Zrotation
							JOINT LeftShoulder
							{
								OFFSET 8.476499 7.247704 -3.868750
								CHANNELS 3 Xrotation Yrotation Zrotation
								JOINT LeftShoulder_split
								{
									OFFSET 8.476499 7.247704 -3.868750
									CHANNELS 3 Xrotation Yrotation Zrotation
									JOINT LeftArm
									{
										OFFSET 9.308998 -2.777710 0.208600
										CHANNELS 3 Xrotation Yrotation Zrotation
										JOINT LeftForeArm
										{
											OFFSET 29.972298 0.000000 0.000000
											CHANNELS 3 Xrotation Yrotation Zrotation
											JOINT LeftHand
											{
												OFFSET 26.026505 0.000000 0.000000
												CHANNELS 3 Xrotation Yrotation Zrotation
												End Site
												{
													OFFSET 0 0 0
												}
											}
										}
									}
								}
							}
						}
						JOINT RightShoulder_virtual
						{
							OFFSET 0.000000 0.000000 0.000000
							CHANNELS 3 Xrotation Yrotation Zrotation
							JOINT RightShoulder
							{
								OFFSET -7.570500 7.247704 -3.868750
								CHANNELS 3 Xrotation Yrotation Zrotation
								JOINT RightShoulder_split
								{
									OFFSET -7.570500 7.247704 -3.868750
									CHANNELS 3 Xrotation Yrotation Zrotation
									JOINT RightArm
									{
										OFFSET -9.308998 -2.777710 0.208500
										CHANNELS 3 Xrotation Yrotation Zrotation
										JOINT RightForeArm
										{
											OFFSET -29.972300 0.000000 0.000000
											CHANNELS 3 Xrotation Yrotation Zrotation
											JOINT RightHand
											{
												OFFSET -26.026505 0.000000 0.000000
												CHANNELS 3 Xrotation Yrotation Zrotation
												End Site
												{
													OFFSET 0 0 0
												}
											}
										}
									}
								}
							}
						}
					}
				}
			}
		}
	}
}
MOTION
Frames: 6
Frame Time: 0.03333333
1.594116 72.750336 0.989933 0.000000 0.000000 0.000000 8.430877 -55.040294 9.670234 -65.839581 26.096305 42.071401 45.676409 -16.748032 1.370596 7.581904 -0.340221 -8.907187 -0.441589 -5.656556 1.398935 0.000000 0.000000 0.000000 7.818705 -56.030808 10.217697 -25.830194 -0.896856 -31.463570 41.929780 7.141524 -6.210887 -22.950969 -5.290242 27.869180 5.521617 3.674603 2.501047 0.000000 0.000000 0.000000 10.618281 -49.712197 11.072667 13.538611 3.839807 -3.384744 2.990561 6.747619 -4.366700 0.202727 -4.382792 1.389246 0.000000 0.000000 0.000000 -3.792874 5.883352 -3.263672 -0.627385 10.851547 -0.160093 -2.463657 26.442353 -4.549734 0.000000 0.000000 0.000000 -4.753862 5.591579 -3.416483 -0.713877 -7.752427 -2.595664 -0.158778 -3.186867 2.840687 -10.373681 5.853444 -45.470099 -20.925618 -28.721062 -16.832793 0.000000 0.000000 0.000000 -5.189703 5.545165 -2.859658 -2.330779 21.529265 0.997726 -5.069458 -2.233906 3.231280 3.318566 -29.758888 59.178200 -19.572520 38.789457 19.149661 0.000000 0.000000 0.000000 
1.279760 72.652794 0.751713 0.000000 0.000000 0.000000 8.304203 -55.003022 9.870422 -65.958679 26.380924 42.138750 45.777113 -17.018962 1.335262 8.079442 -0.403638 -9.170002 0.094692 -5.586467 1.035456 0.000000 0.000000 0.000000 7.632628 -55.967636 10.302446 -26.261698 -1.070086 -31.703392 41.767399 6.913059 -6.122414 -22.840105 -5.257518 27.589989 5.422779 3.675540 2.504528 0.000000 0.000000 0.000000 10.173698 -49.688943 10.795653 13.675202 3.612405 -3.647450 2.964588 6.716444 -4.383601 -0.181474 -4.045376 1.025398 0.000000 0.000000 0.000000 -3.891084 5.918493 -3.268212 -0.739529 11.183693 -0.317357 -2.358640 26.516755 -4.371429 0.000000 0.000000 0.000000 -4.799864 5.577055 -3.400371 -0.599168 -7.964410 -2.038312 -0.577135 -2.516813 2.036398 -11.041951 5.910440 -45.505534 -21.432621 -29.687137 -17.418389 0.000000 0.000000 0.000000 -5.081222 5.523621 -2.783779 -2.324300 21.157438 1.106810 -5.994766 -1.589130 3.303602 5.266792 -30.031420 59.910253 -19.620301 39.094449 19.231791 0.000000 0.000000 0.000000 
0.889781 72.660118 0.529003 0.000000 0.000000 0.000000 8.099734 -55.085865 9.835342 -65.875631 26.515564 42.361270 45.532838 -17.165932 1.346257 8.497224 -0.461884 -9.612732 0.488116 -5.494447 0.381934 0.000000 0.000000 0.000000 7.246280 -56.174488 10.134976 -26.599328 -1.287750 -31.530540 41.659646 6.571923 -6.034919 -22.919916 -5.291943 26.903193 5.346452 3.661578 2.448868 0.000000 0.000000 0.000000 9.698433 -49.881862 10.368513 13.775960 3.371055 -3.939772 2.942435 6.764533 -4.365730 -0.405078 -3.684167 0.942183 0.000000 0.000000 0.000000 -3.948981 6.055237 -3.224979 -0.571241 11.557167 -0.525181 -1.993446 25.895156 -4.144324 0.000000 0.000000 0.000000 -4.862755 5.660973 -3.245075 -0.477313 -8.322083 -1.500651 -0.516094 -1.817543 1.026929 -11.389768 6.222221 -45.041136 -22.439705 -31.726878 -18.798472 0.000000 0.000000 0.000000 -4.976776 5.599126 -2.675866 -2.123702 20.642329 0.958075 -6.462024 -0.945131 3.186912 7.742509 -30.873008 61.399357 -20.204265 41.125757 19.716557 0.000000 0.000000 0.000000 
0.611531 72.804718 0.311825 0.000000 0.000000 0.000000 7.863479 -55.519425 9.601680 -65.498782 26.330246 42.592411 44.915020 -17.221424 1.380161 8.852600 -0.495664 -10.310998 0.246570 -5.375527 -0.289975 0.000000 0.000000 0.000000 6.825841 -56.514075 9.832143 -27.028283 -1.503327 -30.977995 41.598424 6.308213 -5.948995 -22.999103 -5.258760 26.034523 5.473706 3.641939 2.321732 0.000000 0.000000 0.000000 9.346008 -50.452152 9.949204 13.793364 3.131979 -4.146224 2.938826 6.831808 -4.298869 -0.251826 -3.345302 1.123219 0.000000 0.000000 0.000000 -3.940605 6.220189 -3.124391 -0.291436 12.004957 -0.775998 -1.422268 24.794659 -4.002822 0.000000 0.000000 0.000000 -4.916007 5.776288 -3.016155 -0.375620 -8.764049 -1.212523 0.110619 -1.270236 0.090807 -11.320391 6.613913 -44.186256 -23.727225 -34.290814 -20.673453 0.000000 0.000000 0.000000 -4.913271 5.710878 -2.542853 -1.798545 20.071315 0.656918 -6.691537 -0.870601 2.912661 10.149424 -32.126160 62.926335 -21.321832 44.340331 20.581906 0.000000 0.000000 0.000000 
0.470947 73.009720 0.161602 0.000000 0.000000 0.000000 7.737288 -56.291882 9.392366 -64.840967 25.909764 42.675459 44.297195 -17.241175 1.538923 9.087095 -0.418609 -11.442062 -0.342842 -5.238596 -0.729676 0.000000 0.000000 0.000000 6.590923 -56.945449 9.585786 -27.672621 -1.741707 -30.167948 41.670472 6.258680 -5.818706 -23.108051 -5.043997 25.032186 6.031782 3.609003 2.142562 0.000000 0.000000 0.000000 9.337225 -51.340428 9.733805 13.698282 2.936448 -4.186823 2.971022 6.867103 -4.213746 0.056492 -3.012327 1.294537 0.000000 0.000000 0.000000 -3.862603 6.331133 -2.996904 -0.070021 12.585089 -1.162915 -0.753358 23.588758 -4.101675 0.000000 0.000000 0.000000 -4.929283 5.825585 -2.777442 -0.323519 -9.181128 -1.368374 0.823142 -0.795328 -0.506859 -10.820889 6.947487 -43.035154 -24.978447 -36.957956 -22.640837 0.000000 0.000000 0.000000 -4.917402 5.786126 -2.407245 -1.451944 19.564297 0.317474 -6.659919 -1.420972 2.499760 11.971529 -33.285916 63.683973 -22.953231 48.147957 21.823026 0.000000 0.000000 0.000000 
0.398432 73.200638 0.238369 0.000000 0.000000 0.000000 7.787533 -57.371567 9.452961 -63.853417 25.492284 42.411592 43.843189 -17.119254 1.826025 8.878882 -0.054420 -12.958058 -0.681600 -5.098796 -0.865666 0.000000 0.000000 0.000000 6.679915 -57.573693 9.667566 -28.695465 -2.003957 -29.355818 41.896759 6.402027 -5.628984 -23.170075 -4.653189 23.916754 6.875416 3.554076 1.953732 0.000000 0.000000 0.000000 9.706639 -52.634742 9.925183 13.504188 2.773518 -4.052730 2.999941 6.847106 -4.159440 0.369874 -2.971439 1.393915 0.000000 0.000000 0.000000 -3.774469 6.337218 -2.885354 -0.106165 13.391540 -1.706959 0.014035 22.629798 -4.570112 0.000000 0.000000 0.000000 -4.934448 5.766181 -2.632652 -0.336858 -9.470387 -2.060255 1.166994 -0.377874 -0.575861 -9.685896 7.141419 -41.797875 -25.922016 -39.402422 -24.312974 0.000000 0.000000 0.000000 -5.032705 5.751602 -2.322271 -1.156172 19.238261 -0.030290 -6.321767 -2.204169 2.146112 12.927169 -34.074933 63.160679 -24.943554 51.901600 23.349113 0.000000 0.000000 0.000000 
